<?xml version="1.0" encoding="utf-8"?><!DOCTYPE svg PUBLIC "-//W3C//DTD SVG 1.1//EN" "http://www.w3.org/Graphics/SVG/1.1/DTD/svg11.dtd"><svg width="65.52" height="66" viewBox="0 0 65.52 66" xmlns="http://www.w3.org/2000/svg" xmlns:xlink="http://www.w3.org/1999/xlink"><svg width="65.52" height="65.52" viewBox="-10 -10 65.52 65.52" id="icon-arrow-red"><path fill="#FFF" d="M34.188 3.053C30.7 1.018 26.892 0 22.763 0c-4.13 0-7.939 1.018-11.426 3.053a22.654 22.654 0 0 0-8.284 8.283C1.018 14.825 0 18.632 0 22.763c0 4.13 1.018 7.938 3.053 11.425a22.65 22.65 0 0 0 8.284 8.284c3.487 2.035 7.296 3.053 11.426 3.053 4.129 0 7.938-1.018 11.425-3.053s6.249-4.796 8.284-8.284c2.035-3.487 3.053-7.295 3.053-11.425 0-4.13-1.018-7.938-3.053-11.426a22.665 22.665 0 0 0-8.284-8.284m-3.334 33.669c-2.47 1.442-5.167 2.164-8.091 2.164-2.925 0-5.622-.722-8.092-2.164a16.063 16.063 0 0 1-5.868-5.868c-1.443-2.47-2.164-5.167-2.164-8.091 0-2.924.721-5.621 2.164-8.092a16.078 16.078 0 0 1 5.868-5.868c2.47-1.442 5.167-2.164 8.092-2.164 2.924 0 5.621.722 8.091 2.164a16.078 16.078 0 0 1 5.868 5.868c1.442 2.471 2.164 5.168 2.164 8.092 0 2.924-.722 5.621-2.164 8.091s-3.399 4.425-5.868 5.868m3.023-14.641l-9.455-9.455c-.237-.197-.475-.296-.711-.296a.927.927 0 0 0-.683.267.926.926 0 0 0-.266.681v5.691H12.33c-.257 0-.479.094-.667.282s-.281.41-.281.666v5.691a.91.91 0 0 0 .281.667.91.91 0 0 0 .667.281h10.433v5.69c0 .258.093.479.281.667a.909.909 0 0 0 .667.281.928.928 0 0 0 .682-.266l9.484-9.485a.92.92 0 0 0 .267-.681.92.92 0 0 0-.267-.681"/></svg></svg>