<?xml version="1.0" encoding="utf-8"?>
<!-- Generator: Adobe Illustrator 16.0.2, SVG Export Plug-In . SVG Version: 6.00 Build 0)  -->
<!DOCTYPE svg PUBLIC "-//W3C//DTD SVG 1.1//EN" "http://www.w3.org/Graphics/SVG/1.1/DTD/svg11.dtd">
<svg version="1.1" id="Layer_1" xmlns="http://www.w3.org/2000/svg" xmlns:xlink="http://www.w3.org/1999/xlink" x="0px" y="0px"
	 width="45.524px" height="45.524px" viewBox="0 0 45.524 45.524" enable-background="new 0 0 45.524 45.524" xml:space="preserve">
<g>
	<path fill="#FFFFFF" d="M34.188,3.053C30.7,1.018,26.892,0,22.763,0c-4.13,0-7.939,1.018-11.426,3.053
		C7.849,5.088,5.087,7.85,3.053,11.336C1.018,14.825,0,18.632,0,22.763c0,4.13,1.018,7.938,3.053,11.425
		c2.035,3.488,4.796,6.249,8.284,8.284c3.487,2.035,7.296,3.053,11.426,3.053c4.129,0,7.938-1.018,11.425-3.053
		s6.249-4.796,8.284-8.284c2.035-3.487,3.053-7.295,3.053-11.425c0-4.13-1.018-7.938-3.053-11.426
		C40.437,7.85,37.675,5.088,34.188,3.053 M30.854,36.722c-2.47,1.442-5.167,2.164-8.091,2.164c-2.925,0-5.622-0.722-8.092-2.164
		c-2.47-1.442-4.426-3.398-5.868-5.868c-1.443-2.47-2.164-5.167-2.164-8.091c0-2.924,0.721-5.621,2.164-8.092
		c1.442-2.469,3.398-4.425,5.868-5.868c2.47-1.442,5.167-2.164,8.092-2.164c2.924,0,5.621,0.722,8.091,2.164
		c2.47,1.443,4.426,3.399,5.868,5.868c1.442,2.471,2.164,5.168,2.164,8.092c0,2.924-0.722,5.621-2.164,8.091
		S33.323,35.279,30.854,36.722 M33.877,22.081l-9.455-9.455c-0.237-0.197-0.475-0.296-0.711-0.296c-0.277,0-0.504,0.089-0.683,0.267
		c-0.177,0.178-0.266,0.405-0.266,0.681v5.691H12.33c-0.257,0-0.479,0.094-0.667,0.282s-0.281,0.41-0.281,0.666v5.691
		c0,0.257,0.093,0.479,0.281,0.667c0.188,0.188,0.41,0.281,0.667,0.281h10.433v5.69c0,0.258,0.093,0.479,0.281,0.667
		c0.188,0.188,0.409,0.281,0.667,0.281c0.276,0,0.504-0.089,0.682-0.266l9.484-9.485c0.178-0.177,0.267-0.404,0.267-0.681
		C34.144,22.485,34.055,22.258,33.877,22.081"/>
</g>
</svg>
